# xmcd
#
# Track frame offsets: 
#        150
#        11589
#        24013
#        41808
#        54134
#        67962
#        89953
#        102202
#        118426
#        138760
#        153883
#        165812
#        176902
#        195550
#        208301
#        229802
#        247537
#        270132
#        283767
#        299504
#
# Disc length: 4118 seconds
#
# Revision: 1
# Processed by: cddbd v1.5.2PL0 Copyright (c) Steve Scherf et al.
# Submitted via: ExactAudioCopyFreeDBPlugin 1.0
#
DISCID=0f101414
DTITLE=Ennio Morricone - 100 Greatest Movie Hits [Disc 2]
DYEAR=2012
DGENRE=Soundtrack
TTITLE0=Sacco And Vanzetti: Speranze Di Libertà
TTITLE1=The Exorcist II: Il Pazuzo
TTITLE2=Extrasensorial: Extrasensorial Macabre Waltz
TTITLE3=Un Delitto Italiano: Vedo Il Mio Corpo Crocefisso
TTITLE4=L'Uomo Delle Stelle: Titoli
TTITLE5=L'Avventuriero: Titoli
TTITLE6=Metello: Titoli
TTITLE7=The Discovery Of America: Titoli
TTITLE8=Gott Mit Uns: Lontano
TTITLE9=Il Deserto Dei Tartari: Titoli
TTITLE10=Hamlet: Titoli
TTITLE11=La Battaglia Di Algeri: Algiers, November 1954
TTITLE12=La Resa Dei Conti: The Surrender
TTITLE13=Il Ritorno Di Ringo: L'Incontro Con La Figlia
TTITLE14=Revolver: Un Amico (Titoli)
TTITLE15=Allonsanfan: Rabbia E Tarantella
TTITLE16=Il Mercenario: L'Arena
TTITLE17=Navajo Joe: Profilo Del Destino
TTITLE18=Il Gatto A Nove Code: Paranoia Prima
TTITLE19=Il Federale: Titoli
EXTD=
EXTT0=
EXTT1=
EXTT2=
EXTT3=
EXTT4=
EXTT5=
EXTT6=
EXTT7=
EXTT8=
EXTT9=
EXTT10=
EXTT11=
EXTT12=
EXTT13=
EXTT14=
EXTT15=
EXTT16=
EXTT17=
EXTT18=
EXTT19=
PLAYORDER=
